<?xml version="1.0" standalone="no"?><!DOCTYPE svg PUBLIC "-//W3C//DTD SVG 1.1//EN" "http://www.w3.org/Graphics/SVG/1.1/DTD/svg11.dtd"><svg t="1622376377747" class="icon" viewBox="0 0 1024 1024" version="1.1" xmlns="http://www.w3.org/2000/svg" p-id="2700" xmlns:xlink="http://www.w3.org/1999/xlink" width="200" height="200"><defs><style type="text/css"></style></defs><path d="M917.09952 84.6848H114.41152c-32.83968 0-59.45856 26.624-59.45856 59.45856v772.96128c0 32.83456 26.624 59.45344 59.45856 59.45344h802.688c32.83456 0 59.45344-26.61888 59.45344-59.45344V144.13824c0-32.82944-26.61888-59.45344-59.45344-59.45344z" fill="" p-id="2701"></path><path d="M917.09952 54.95296H114.41152c-32.83968 0-59.45856 26.624-59.45856 59.45856V887.35232c0 32.8448 26.624 59.46368 59.45856 59.46368h802.688c32.83456 0 59.45344-26.61888 59.45344-59.46368V114.41152c0-32.83456-26.61888-59.45856-59.45344-59.45856z" fill="#ECEAE0" p-id="2702"></path><path d="M872.50432 114.41152H159.00672a44.5952 44.5952 0 0 0-44.5952 44.5952V590.07488h802.688V159.00672a44.5952 44.5952 0 0 0-44.5952-44.5952z" fill="#98DCF0" p-id="2703"></path><path d="M613.63712 411.55584l-154.94144 178.51904h309.86752z" fill="#699B54" p-id="2704"></path><path d="M586.82368 590.07488l-206.53568-237.9776-206.5408 237.9776H114.41152V694.12352a44.5952 44.5952 0 0 0 44.5952 44.5952h713.4976a44.5952 44.5952 0 0 0 44.5952-44.5952v-104.05376h-330.27584z" fill="#80BB67" p-id="2705"></path><path d="M768.44544 263.05536m-59.45856 0a59.45856 59.45856 0 1 0 118.91712 0 59.45856 59.45856 0 1 0-118.91712 0Z" fill="#FFE68E" p-id="2706"></path></svg>