<?xml version="1.0" standalone="no"?><!DOCTYPE svg PUBLIC "-//W3C//DTD SVG 1.1//EN" "http://www.w3.org/Graphics/SVG/1.1/DTD/svg11.dtd"><svg t="1622376292967" class="icon" viewBox="0 0 1024 1024" version="1.1" xmlns="http://www.w3.org/2000/svg" p-id="1336" data-spm-anchor-id="a313x.7781069.0.i3" xmlns:xlink="http://www.w3.org/1999/xlink" width="200" height="200"><defs><style type="text/css"></style></defs><path d="M634.5 60.7h-419c-19.8 0-38.7 7.8-52.7 21.8C149.3 96 141 114.6 141 135.2v745.2c0 19.8 7.8 38.7 21.8 52.7s32.9 21.9 52.7 21.8h596.1c19.8 0 38.7-7.8 52.7-21.8 13.5-13.5 21.8-32.1 21.8-52.7l0.1-581.6L634.5 60.7z m-9.1 94.1l137 129.4h-137V154.8z m186.3 725.6H215.5V135.2h335.3v186.3c0 9.9 3.9 19.4 10.9 26.4s16.5 10.9 26.4 10.9h223.6v521.6z" p-id="1337" fill="#1081e0"></path><path d="M313.8 595.9v179.2c0 14.1 11.5 25.6 25.6 25.6h102.4c14.1 0 25.6-11.5 25.6-25.6V544.7h-76.8v51.2h-76.8z m128 102.4v51.2H339.4v-51.2h102.4zM390.6 339.9h76.8v51.2h-76.8zM390.6 442.3h76.8v51.2h-76.8zM390.6 237.5h76.8v51.2h-76.8zM313.8 288.7h76.8v51.2h-76.8zM313.8 493.5h76.8v51.2h-76.8zM313.8 391.1h76.8v51.2h-76.8z" p-id="1338" fill="#1081e0"></path></svg>